M48
;Layer_Color=9474304
;FILE_FORMAT=2:5
INCH,LZ
;TYPE=PLATED
T1F00S00C0.01000
T2F00S00C0.12992
%
T01
X0316Y02175
X032
X0324
Y0214
X0328
Y02175
X0332
Y0214
X0336
Y02175
X034
Y0214
X0344
Y02175
X0345Y02235
Y02317
Y02395
Y02472
Y0255
Y02632
Y02712
Y0279
Y0287
X0344Y02925
Y0296
X034
Y02925
X0336
Y0296
X0332
Y02925
X0328
Y0296
X0324
Y02925
X032
X0316
X0348Y0296
X0352
X0356
X036
X0364
X0368
Y0292
X0364
X0372
Y0296
Y0288
X0368
X0367Y0263
X03654Y02588
X0367Y0255
Y0251
Y0247
X03795Y0259
X0372Y0222
Y0218
X0368
Y0214
X0364
X036
X0356
X0352
X0348
X0364Y0218
X0368Y0222
X0372Y0214
X0312Y02175
Y02925
T02
X035475Y0224256
Y0285744
X0408Y0255
M30
