G04 Layer_Color=16711935*
%FSLAX25Y25*%
%MOIN*%
G70*
G01*
G75*
%ADD26C,0.16348*%
%ADD27C,0.01200*%
G04:AMPARAMS|DCode=28|XSize=33.56mil|YSize=124.11mil|CornerRadius=4.38mil|HoleSize=0mil|Usage=FLASHONLY|Rotation=270.000|XOffset=0mil|YOffset=0mil|HoleType=Round|Shape=RoundedRectangle|*
%AMROUNDEDRECTD28*
21,1,0.03356,0.11535,0,0,270.0*
21,1,0.02480,0.12411,0,0,270.0*
1,1,0.00876,-0.05768,-0.01240*
1,1,0.00876,-0.05768,0.01240*
1,1,0.00876,0.05768,0.01240*
1,1,0.00876,0.05768,-0.01240*
%
%ADD28ROUNDEDRECTD28*%
G04:AMPARAMS|DCode=29|XSize=33.56mil|YSize=124.11mil|CornerRadius=9.89mil|HoleSize=0mil|Usage=FLASHONLY|Rotation=90.000|XOffset=0mil|YOffset=0mil|HoleType=Round|Shape=RoundedRectangle|*
%AMROUNDEDRECTD29*
21,1,0.03356,0.10433,0,0,90.0*
21,1,0.01378,0.12411,0,0,90.0*
1,1,0.01978,0.05216,0.00689*
1,1,0.01978,0.05216,-0.00689*
1,1,0.01978,-0.05216,-0.00689*
1,1,0.01978,-0.05216,0.00689*
%
%ADD29ROUNDEDRECTD29*%
G04:AMPARAMS|DCode=30|XSize=26mil|YSize=46mil|CornerRadius=5mil|HoleSize=0mil|Usage=FLASHONLY|Rotation=270.000|XOffset=0mil|YOffset=0mil|HoleType=Round|Shape=RoundedRectangle|*
%AMROUNDEDRECTD30*
21,1,0.02600,0.03600,0,0,270.0*
21,1,0.01600,0.04600,0,0,270.0*
1,1,0.01000,-0.01800,-0.00800*
1,1,0.01000,-0.01800,0.00800*
1,1,0.01000,0.01800,0.00800*
1,1,0.01000,0.01800,-0.00800*
%
%ADD30ROUNDEDRECTD30*%
%ADD31R,0.04143X0.03356*%
%ADD32R,0.03356X0.04143*%
%ADD33R,0.03750X0.03750*%
D26*
X408000Y255000D02*
D03*
X354750Y285744D02*
D03*
Y224256D02*
D03*
D27*
X367000Y251000D02*
D03*
X345000Y287000D02*
D03*
Y279000D02*
D03*
Y271200D02*
D03*
Y255000D02*
D03*
Y223500D02*
D03*
Y231700D02*
D03*
Y239500D02*
D03*
Y247200D02*
D03*
Y263200D02*
D03*
X365400Y258800D02*
D03*
X328000Y296000D02*
D03*
X332000D02*
D03*
X336000D02*
D03*
X340000D02*
D03*
X344000D02*
D03*
X348000D02*
D03*
X352000D02*
D03*
X356000D02*
D03*
X360000D02*
D03*
X364000D02*
D03*
X368000D02*
D03*
X324000D02*
D03*
Y214000D02*
D03*
X368000D02*
D03*
X364000D02*
D03*
X360000D02*
D03*
X356000D02*
D03*
X352000D02*
D03*
X348000D02*
D03*
X344000D02*
D03*
X340000D02*
D03*
X336000D02*
D03*
X332000D02*
D03*
X328000D02*
D03*
X312000Y292500D02*
D03*
X316000D02*
D03*
X320000D02*
D03*
X324000D02*
D03*
X344000D02*
D03*
X340000D02*
D03*
X336000D02*
D03*
X332000D02*
D03*
X328000D02*
D03*
X312000Y217500D02*
D03*
X316000D02*
D03*
X320000D02*
D03*
X324000D02*
D03*
X344000D02*
D03*
X340000D02*
D03*
X336000D02*
D03*
X332000D02*
D03*
X328000D02*
D03*
X367000Y255000D02*
D03*
Y263000D02*
D03*
Y247000D02*
D03*
X379500Y259000D02*
D03*
X368000Y218000D02*
D03*
X364000D02*
D03*
X372000D02*
D03*
Y214000D02*
D03*
Y222000D02*
D03*
X368000D02*
D03*
Y292000D02*
D03*
X364000D02*
D03*
X372000D02*
D03*
Y296000D02*
D03*
Y288000D02*
D03*
X368000D02*
D03*
D28*
X314600Y296200D02*
D03*
Y214200D02*
D03*
D29*
X337485Y263078D02*
D03*
Y270952D02*
D03*
Y278826D02*
D03*
Y286700D02*
D03*
X337516Y255204D02*
D03*
Y247330D02*
D03*
Y223708D02*
D03*
Y231582D02*
D03*
X337500Y239500D02*
D03*
D30*
X376500Y256500D02*
D03*
Y253500D02*
D03*
D31*
X394000Y252244D02*
D03*
Y257756D02*
D03*
D32*
X364756Y255000D02*
D03*
X359244D02*
D03*
X359244Y247000D02*
D03*
X364756D02*
D03*
X359244Y263000D02*
D03*
X364756D02*
D03*
D33*
X387000Y258150D02*
D03*
Y251850D02*
D03*
M02*
