G04 Layer_Color=32896*
%FSLAX25Y25*%
%MOIN*%
G70*
G01*
G75*
%ADD20C,0.01000*%
%ADD23C,0.00787*%
%ADD24C,0.00600*%
%ADD34C,0.00800*%
%ADD35C,0.00400*%
%ADD36C,0.00500*%
G36*
X354336Y234995D02*
X346944D01*
Y275430D01*
X354336D01*
Y234995D01*
D02*
G37*
%LPC*%
G36*
X352152Y250992D02*
X351892D01*
X351881Y250980D01*
X351864Y250969D01*
X351836Y250958D01*
X351803Y250942D01*
X351764Y250919D01*
X351675Y250869D01*
X351564Y250814D01*
X351442Y250747D01*
X351314Y250681D01*
X351181Y250614D01*
X351176D01*
X351165Y250609D01*
X351148Y250598D01*
X351120Y250586D01*
X351087Y250570D01*
X351048Y250553D01*
X350959Y250509D01*
X350848Y250459D01*
X350732Y250409D01*
X350598Y250353D01*
X350465Y250298D01*
X350460D01*
X350448Y250292D01*
X350432Y250287D01*
X350404Y250276D01*
X350371Y250259D01*
X350332Y250248D01*
X350238Y250215D01*
X350127Y250176D01*
X350005Y250131D01*
X349877Y250087D01*
X349738Y250048D01*
X349733D01*
X349722Y250043D01*
X349705Y250037D01*
X349677Y250031D01*
X349644Y250020D01*
X349605Y250009D01*
X349511Y249987D01*
X349400Y249965D01*
X349277Y249937D01*
X349139Y249909D01*
X349000Y249887D01*
Y249354D01*
X349017D01*
X349033Y249360D01*
X349061Y249365D01*
X349089Y249371D01*
X349122Y249377D01*
X349211Y249393D01*
X349311Y249415D01*
X349427Y249438D01*
X349549Y249471D01*
X349672Y249504D01*
X349677D01*
X349688Y249510D01*
X349705Y249515D01*
X349733Y249521D01*
X349760Y249532D01*
X349799Y249543D01*
X349883Y249571D01*
X349988Y249604D01*
X350099Y249643D01*
X350221Y249687D01*
X350349Y249732D01*
X350354D01*
X350365Y249737D01*
X350382Y249743D01*
X350410Y249754D01*
X350437Y249765D01*
X350476Y249782D01*
X350559Y249820D01*
X350665Y249865D01*
X350776Y249915D01*
X350898Y249965D01*
X351026Y250026D01*
X351031D01*
X351042Y250031D01*
X351059Y250043D01*
X351087Y250054D01*
X351115Y250070D01*
X351153Y250087D01*
X351242Y250131D01*
X351348Y250187D01*
X351464Y250242D01*
X351592Y250309D01*
X351719Y250376D01*
Y248883D01*
X352152D01*
Y250992D01*
D02*
G37*
G36*
X350115Y248638D02*
X349688D01*
Y248172D01*
X349000D01*
Y247673D01*
X349688D01*
Y246246D01*
X350121D01*
X350132Y246257D01*
X350160Y246280D01*
X350204Y246318D01*
X350260Y246368D01*
X350332Y246429D01*
X350410Y246496D01*
X350499Y246568D01*
X350593Y246640D01*
X350598D01*
X350604Y246652D01*
X350637Y246674D01*
X350687Y246718D01*
X350754Y246768D01*
X350832Y246829D01*
X350920Y246896D01*
X351015Y246962D01*
X351109Y247034D01*
X351115D01*
X351120Y247045D01*
X351153Y247068D01*
X351209Y247101D01*
X351275Y247151D01*
X351359Y247201D01*
X351448Y247262D01*
X351542Y247323D01*
X351642Y247384D01*
X351647D01*
X351653Y247390D01*
X351686Y247412D01*
X351742Y247440D01*
X351808Y247478D01*
X351886Y247523D01*
X351969Y247567D01*
X352152Y247656D01*
Y248172D01*
X350115D01*
Y248638D01*
D02*
G37*
G36*
X350282Y257624D02*
X350132D01*
X350093Y257618D01*
X350049D01*
X349993Y257607D01*
X349932Y257602D01*
X349866Y257591D01*
X349722Y257557D01*
X349572Y257507D01*
X349500Y257480D01*
X349427Y257441D01*
X349355Y257402D01*
X349289Y257352D01*
X349283Y257346D01*
X349272Y257341D01*
X349255Y257324D01*
X349239Y257302D01*
X349211Y257274D01*
X349183Y257241D01*
X349150Y257202D01*
X349122Y257158D01*
X349056Y257052D01*
X349006Y256925D01*
X348983Y256852D01*
X348967Y256780D01*
X348956Y256697D01*
X348950Y256614D01*
Y256608D01*
Y256597D01*
Y256569D01*
X348956Y256542D01*
X348961Y256503D01*
X348972Y256464D01*
X348994Y256364D01*
X349039Y256259D01*
X349072Y256203D01*
X349106Y256148D01*
X349150Y256092D01*
X349200Y256042D01*
X349255Y255992D01*
X349322Y255948D01*
Y255937D01*
X349000D01*
Y255426D01*
X352336D01*
Y255937D01*
X350854D01*
Y255948D01*
X350859Y255953D01*
X350876Y255959D01*
X350898Y255976D01*
X350926Y255998D01*
X350959Y256025D01*
X350998Y256059D01*
X351037Y256098D01*
X351081Y256142D01*
X351120Y256192D01*
X351159Y256247D01*
X351198Y256314D01*
X351231Y256381D01*
X351264Y256458D01*
X351287Y256536D01*
X351298Y256619D01*
X351303Y256714D01*
Y256719D01*
Y256730D01*
Y256752D01*
X351298Y256786D01*
X351292Y256819D01*
X351287Y256863D01*
X351264Y256958D01*
X351231Y257063D01*
X351176Y257174D01*
X351142Y257230D01*
X351098Y257285D01*
X351054Y257335D01*
X350998Y257380D01*
X350992Y257385D01*
X350987Y257391D01*
X350965Y257402D01*
X350942Y257418D01*
X350915Y257435D01*
X350876Y257457D01*
X350832Y257480D01*
X350787Y257502D01*
X350732Y257524D01*
X350671Y257546D01*
X350604Y257568D01*
X350532Y257585D01*
X350371Y257613D01*
X350282Y257624D01*
D02*
G37*
G36*
X352336Y253528D02*
X349000D01*
Y253017D01*
X349377D01*
Y253006D01*
X349372D01*
X349361Y252995D01*
X349339Y252978D01*
X349311Y252962D01*
X349277Y252934D01*
X349244Y252901D01*
X349205Y252862D01*
X349166Y252818D01*
X349122Y252767D01*
X349083Y252712D01*
X349050Y252651D01*
X349017Y252584D01*
X348989Y252507D01*
X348967Y252429D01*
X348956Y252340D01*
X348950Y252246D01*
Y252240D01*
Y252229D01*
Y252207D01*
X348956Y252179D01*
X348961Y252140D01*
X348967Y252101D01*
X348989Y252007D01*
X349022Y251902D01*
X349078Y251791D01*
X349111Y251735D01*
X349150Y251680D01*
X349200Y251630D01*
X349250Y251580D01*
X349255D01*
X349266Y251569D01*
X349283Y251558D01*
X349305Y251541D01*
X349333Y251524D01*
X349372Y251502D01*
X349416Y251480D01*
X349466Y251458D01*
X349522Y251430D01*
X349583Y251408D01*
X349649Y251386D01*
X349722Y251369D01*
X349799Y251352D01*
X349888Y251341D01*
X349977Y251336D01*
X350071Y251330D01*
X350127D01*
X350166Y251336D01*
X350210Y251341D01*
X350265Y251347D01*
X350326Y251352D01*
X350393Y251363D01*
X350537Y251397D01*
X350687Y251447D01*
X350759Y251480D01*
X350832Y251519D01*
X350898Y251558D01*
X350965Y251608D01*
X350970Y251613D01*
X350981Y251619D01*
X350998Y251635D01*
X351020Y251658D01*
X351042Y251685D01*
X351070Y251719D01*
X351103Y251758D01*
X351137Y251802D01*
X351198Y251907D01*
X351253Y252035D01*
X351270Y252107D01*
X351287Y252179D01*
X351298Y252262D01*
X351303Y252346D01*
Y252351D01*
Y252368D01*
Y252390D01*
X351298Y252418D01*
X351292Y252457D01*
X351287Y252501D01*
X351259Y252601D01*
X351214Y252707D01*
X351187Y252762D01*
X351148Y252818D01*
X351109Y252868D01*
X351059Y252917D01*
X351004Y252967D01*
X350937Y253006D01*
Y253017D01*
X352336D01*
Y253528D01*
D02*
G37*
G36*
X349622Y240974D02*
X349594D01*
X349561Y240968D01*
X349522Y240963D01*
X349472Y240957D01*
X349422Y240940D01*
X349372Y240924D01*
X349322Y240896D01*
X349316Y240891D01*
X349300Y240879D01*
X349277Y240863D01*
X349250Y240841D01*
X349216Y240813D01*
X349178Y240774D01*
X349144Y240735D01*
X349111Y240685D01*
X349106Y240680D01*
X349100Y240663D01*
X349083Y240635D01*
X349067Y240596D01*
X349044Y240552D01*
X349022Y240502D01*
X349006Y240441D01*
X348989Y240380D01*
Y240374D01*
X348983Y240352D01*
X348978Y240313D01*
X348972Y240269D01*
X348961Y240213D01*
X348956Y240152D01*
X348950Y240086D01*
Y240014D01*
Y240008D01*
Y239997D01*
Y239980D01*
Y239953D01*
X348956Y239919D01*
Y239886D01*
X348967Y239797D01*
X348978Y239697D01*
X349000Y239592D01*
X349028Y239481D01*
X349067Y239375D01*
X349538D01*
Y239381D01*
X349527Y239387D01*
X349516Y239403D01*
X349505Y239425D01*
X349472Y239486D01*
X349433Y239564D01*
X349389Y239658D01*
X349355Y239764D01*
X349333Y239880D01*
X349322Y240008D01*
Y240014D01*
Y240030D01*
Y240053D01*
X349327Y240080D01*
X349339Y240152D01*
X349355Y240241D01*
X349389Y240324D01*
X349439Y240397D01*
X349466Y240424D01*
X349505Y240446D01*
X349544Y240463D01*
X349594Y240469D01*
X349605D01*
X349638Y240463D01*
X349683Y240452D01*
X349727Y240430D01*
X349738Y240424D01*
X349760Y240402D01*
X349788Y240369D01*
X349821Y240324D01*
Y240319D01*
X349827Y240313D01*
X349849Y240280D01*
X349871Y240230D01*
X349899Y240163D01*
Y240158D01*
X349905Y240147D01*
X349910Y240130D01*
X349921Y240102D01*
X349943Y240041D01*
X349971Y239958D01*
Y239953D01*
X349982Y239936D01*
X349993Y239908D01*
X350005Y239875D01*
X350043Y239797D01*
X350088Y239708D01*
X350093Y239703D01*
X350099Y239692D01*
X350110Y239669D01*
X350127Y239642D01*
X350171Y239586D01*
X350226Y239525D01*
X350232Y239520D01*
X350243Y239514D01*
X350254Y239503D01*
X350276Y239486D01*
X350332Y239448D01*
X350404Y239414D01*
X350410D01*
X350421Y239409D01*
X350443Y239403D01*
X350471Y239398D01*
X350504Y239387D01*
X350543Y239381D01*
X350637Y239375D01*
X350665D01*
X350693Y239381D01*
X350732Y239387D01*
X350776Y239392D01*
X350826Y239409D01*
X350876Y239425D01*
X350920Y239453D01*
X350926Y239459D01*
X350942Y239470D01*
X350965Y239486D01*
X350992Y239509D01*
X351026Y239536D01*
X351065Y239575D01*
X351131Y239658D01*
X351137Y239664D01*
X351148Y239681D01*
X351159Y239708D01*
X351181Y239747D01*
X351203Y239792D01*
X351220Y239842D01*
X351259Y239953D01*
Y239958D01*
X351264Y239980D01*
X351275Y240014D01*
X351281Y240058D01*
X351292Y240108D01*
X351298Y240169D01*
X351303Y240297D01*
Y240302D01*
Y240313D01*
Y240324D01*
Y240347D01*
X351298Y240408D01*
X351292Y240485D01*
X351281Y240569D01*
X351264Y240663D01*
X351242Y240763D01*
X351209Y240857D01*
X350759D01*
X350765Y240846D01*
X350787Y240813D01*
X350815Y240768D01*
X350843Y240702D01*
X350876Y240619D01*
X350898Y240530D01*
X350920Y240424D01*
X350926Y240313D01*
Y240308D01*
Y240297D01*
Y240280D01*
Y240252D01*
X350915Y240197D01*
X350904Y240136D01*
Y240130D01*
X350898Y240125D01*
X350892Y240091D01*
X350876Y240047D01*
X350848Y240003D01*
X350843Y239991D01*
X350826Y239969D01*
X350798Y239942D01*
X350765Y239914D01*
X350754Y239908D01*
X350732Y239903D01*
X350698Y239892D01*
X350654Y239886D01*
X350643D01*
X350609Y239892D01*
X350571Y239897D01*
X350532Y239914D01*
X350526Y239919D01*
X350504Y239936D01*
X350471Y239969D01*
X350443Y240008D01*
Y240014D01*
X350437Y240019D01*
X350421Y240047D01*
X350399Y240097D01*
X350371Y240152D01*
Y240158D01*
X350365Y240169D01*
X350360Y240186D01*
X350354Y240208D01*
X350332Y240269D01*
X350304Y240347D01*
Y240352D01*
X350293Y240369D01*
X350282Y240397D01*
X350265Y240435D01*
X350226Y240519D01*
X350182Y240608D01*
Y240613D01*
X350171Y240630D01*
X350160Y240646D01*
X350143Y240674D01*
X350099Y240741D01*
X350043Y240802D01*
X350038Y240807D01*
X350032Y240818D01*
X350016Y240829D01*
X349993Y240852D01*
X349932Y240891D01*
X349860Y240929D01*
X349855D01*
X349844Y240935D01*
X349821Y240946D01*
X349794Y240952D01*
X349760Y240963D01*
X349716Y240968D01*
X349622Y240974D01*
D02*
G37*
G36*
X350465Y238893D02*
X349000D01*
Y238399D01*
X349350D01*
Y238387D01*
X349344D01*
X349333Y238376D01*
X349311Y238365D01*
X349289Y238343D01*
X349222Y238288D01*
X349150Y238215D01*
X349078Y238121D01*
X349011Y237999D01*
X348989Y237932D01*
X348967Y237866D01*
X348956Y237788D01*
X348950Y237705D01*
Y237699D01*
Y237688D01*
Y237671D01*
X348956Y237649D01*
X348961Y237588D01*
X348972Y237516D01*
X348994Y237433D01*
X349028Y237344D01*
X349067Y237261D01*
X349128Y237183D01*
X349139Y237178D01*
X349161Y237155D01*
X349200Y237122D01*
X349255Y237089D01*
X349322Y237055D01*
X349405Y237022D01*
X349500Y237000D01*
X349605Y236995D01*
X349633D01*
X349666Y237000D01*
X349705Y237005D01*
X349755Y237017D01*
X349810Y237033D01*
X349871Y237055D01*
X349938Y237089D01*
X350005Y237128D01*
X350066Y237178D01*
X350132Y237233D01*
X350188Y237305D01*
X350243Y237388D01*
X350288Y237488D01*
X350321Y237605D01*
X350349Y237733D01*
X350443Y238399D01*
X350465D01*
X350487Y238393D01*
X350515D01*
X350554Y238387D01*
X350593Y238376D01*
X350682Y238343D01*
X350726Y238315D01*
X350770Y238288D01*
X350809Y238249D01*
X350848Y238204D01*
X350876Y238154D01*
X350898Y238093D01*
X350915Y238021D01*
X350920Y237944D01*
Y237938D01*
Y237927D01*
Y237905D01*
X350915Y237877D01*
Y237838D01*
X350904Y237799D01*
X350887Y237699D01*
X350854Y237588D01*
X350804Y237466D01*
X350770Y237405D01*
X350737Y237338D01*
X350693Y237278D01*
X350643Y237216D01*
X351092D01*
Y237222D01*
X351103Y237233D01*
X351115Y237250D01*
X351126Y237278D01*
X351142Y237311D01*
X351159Y237355D01*
X351176Y237400D01*
X351198Y237455D01*
X351237Y237572D01*
X351270Y237710D01*
X351292Y237871D01*
X351303Y238038D01*
Y238049D01*
Y238077D01*
X351298Y238116D01*
X351292Y238171D01*
X351275Y238238D01*
X351259Y238310D01*
X351231Y238387D01*
X351198Y238465D01*
X351153Y238543D01*
X351098Y238621D01*
X351031Y238693D01*
X350948Y238759D01*
X350854Y238815D01*
X350743Y238854D01*
X350615Y238881D01*
X350465Y238893D01*
D02*
G37*
G36*
X350587Y245963D02*
X350510D01*
X350454Y245958D01*
X350388Y245952D01*
X350310Y245947D01*
X350226Y245941D01*
X350138Y245924D01*
X349938Y245891D01*
X349733Y245841D01*
X349638Y245808D01*
X349538Y245769D01*
X349449Y245719D01*
X349366Y245669D01*
X349361Y245663D01*
X349350Y245658D01*
X349327Y245641D01*
X349300Y245614D01*
X349272Y245586D01*
X349233Y245547D01*
X349200Y245508D01*
X349161Y245458D01*
X349122Y245403D01*
X349083Y245342D01*
X349044Y245269D01*
X349017Y245197D01*
X348989Y245120D01*
X348967Y245036D01*
X348956Y244942D01*
X348950Y244848D01*
Y244842D01*
Y244826D01*
X348956Y244798D01*
Y244764D01*
X348961Y244726D01*
X348972Y244676D01*
X349000Y244565D01*
X349022Y244504D01*
X349050Y244443D01*
X349078Y244376D01*
X349117Y244315D01*
X349166Y244248D01*
X349216Y244187D01*
X349277Y244132D01*
X349350Y244076D01*
X349355Y244071D01*
X349366Y244065D01*
X349394Y244049D01*
X349422Y244032D01*
X349466Y244010D01*
X349516Y243987D01*
X349577Y243965D01*
X349644Y243937D01*
X349722Y243910D01*
X349810Y243888D01*
X349905Y243865D01*
X350010Y243843D01*
X350121Y243827D01*
X350243Y243810D01*
X350371Y243804D01*
X350510Y243799D01*
X350587D01*
X350648Y243804D01*
X350715Y243810D01*
X350798Y243815D01*
X350887Y243821D01*
X350981Y243838D01*
X351187Y243871D01*
X351398Y243921D01*
X351498Y243954D01*
X351597Y243993D01*
X351692Y244037D01*
X351775Y244087D01*
X351781Y244093D01*
X351792Y244098D01*
X351814Y244115D01*
X351842Y244143D01*
X351875Y244171D01*
X351914Y244210D01*
X351953Y244248D01*
X351991Y244298D01*
X352030Y244354D01*
X352069Y244420D01*
X352108Y244487D01*
X352141Y244559D01*
X352169Y244642D01*
X352191Y244726D01*
X352202Y244820D01*
X352208Y244920D01*
Y244925D01*
Y244931D01*
X352202Y244964D01*
X352197Y245014D01*
X352180Y245081D01*
X352158Y245164D01*
X352125Y245253D01*
X352075Y245342D01*
X352008Y245442D01*
X351919Y245541D01*
X351869Y245586D01*
X351814Y245636D01*
X351753Y245680D01*
X351681Y245719D01*
X351608Y245763D01*
X351525Y245802D01*
X351436Y245836D01*
X351337Y245869D01*
X351237Y245897D01*
X351120Y245919D01*
X351004Y245936D01*
X350870Y245952D01*
X350737Y245958D01*
X350587Y245963D01*
D02*
G37*
G36*
X349977Y243333D02*
X349932D01*
X349899Y243327D01*
X349860Y243321D01*
X349810Y243316D01*
X349705Y243294D01*
X349583Y243255D01*
X349522Y243233D01*
X349461Y243199D01*
X349400Y243161D01*
X349339Y243122D01*
X349277Y243072D01*
X349222Y243016D01*
X349216Y243011D01*
X349211Y243000D01*
X349194Y242983D01*
X349178Y242961D01*
X349155Y242927D01*
X349133Y242888D01*
X349111Y242844D01*
X349083Y242794D01*
X349056Y242733D01*
X349033Y242672D01*
X349011Y242600D01*
X348989Y242522D01*
X348972Y242439D01*
X348956Y242350D01*
X348950Y242256D01*
X348944Y242156D01*
Y242150D01*
Y242134D01*
Y242111D01*
Y242078D01*
X348950Y242045D01*
Y242001D01*
X348961Y241895D01*
X348978Y241784D01*
X349000Y241673D01*
X349028Y241562D01*
X349072Y241468D01*
X349561D01*
Y241473D01*
X349549Y241484D01*
X349544Y241501D01*
X349527Y241523D01*
X349494Y241584D01*
X349455Y241662D01*
X349416Y241756D01*
X349383Y241862D01*
X349361Y241978D01*
X349350Y242095D01*
Y242101D01*
Y242111D01*
Y242128D01*
Y242150D01*
X349361Y242206D01*
X349372Y242278D01*
X349389Y242361D01*
X349416Y242450D01*
X349455Y242533D01*
X349511Y242611D01*
X349516Y242622D01*
X349544Y242644D01*
X349577Y242672D01*
X349627Y242711D01*
X349694Y242750D01*
X349766Y242778D01*
X349855Y242800D01*
X349955Y242811D01*
X349966D01*
X349999Y242805D01*
X350049Y242800D01*
X350104Y242789D01*
X350171Y242761D01*
X350243Y242728D01*
X350310Y242678D01*
X350371Y242611D01*
X350376Y242600D01*
X350393Y242572D01*
X350421Y242528D01*
X350448Y242467D01*
X350471Y242384D01*
X350499Y242284D01*
X350515Y242173D01*
X350521Y242039D01*
Y242034D01*
Y242012D01*
Y241978D01*
X350515Y241928D01*
Y241856D01*
X350510Y241768D01*
X350504Y241718D01*
Y241656D01*
X350499Y241595D01*
X350493Y241523D01*
X352152Y241634D01*
Y243188D01*
X351719D01*
Y242062D01*
X350926Y242006D01*
Y242012D01*
Y242034D01*
X350931Y242062D01*
Y242095D01*
Y242139D01*
X350937Y242189D01*
Y242284D01*
Y242289D01*
Y242306D01*
Y242334D01*
X350931Y242367D01*
Y242406D01*
X350926Y242456D01*
X350904Y242567D01*
X350876Y242694D01*
X350826Y242822D01*
X350765Y242944D01*
X350721Y243000D01*
X350676Y243055D01*
X350671Y243061D01*
X350665Y243066D01*
X350648Y243083D01*
X350632Y243099D01*
X350604Y243122D01*
X350571Y243144D01*
X350493Y243194D01*
X350393Y243244D01*
X350271Y243288D01*
X350132Y243321D01*
X350060Y243327D01*
X349977Y243333D01*
D02*
G37*
G36*
X351248Y259450D02*
X350765D01*
X350770Y259444D01*
X350776Y259433D01*
X350787Y259411D01*
X350804Y259383D01*
X350815Y259344D01*
X350826Y259300D01*
X350832Y259244D01*
X350837Y259183D01*
Y259172D01*
X350832Y259144D01*
X350826Y259106D01*
X350809Y259050D01*
X350787Y258989D01*
X350748Y258928D01*
X350698Y258861D01*
X350632Y258800D01*
X350621Y258795D01*
X350593Y258778D01*
X350549Y258751D01*
X350487Y258728D01*
X350404Y258700D01*
X350310Y258673D01*
X350199Y258656D01*
X350077Y258651D01*
X349000D01*
Y258140D01*
X351253D01*
Y258651D01*
X350787D01*
Y258662D01*
X350793D01*
X350798Y258667D01*
X350826Y258678D01*
X350870Y258695D01*
X350926Y258717D01*
X350981Y258751D01*
X351042Y258789D01*
X351103Y258834D01*
X351159Y258889D01*
X351165Y258895D01*
X351181Y258917D01*
X351203Y258950D01*
X351226Y258989D01*
X351248Y259045D01*
X351270Y259100D01*
X351287Y259167D01*
X351292Y259239D01*
Y259244D01*
Y259261D01*
Y259289D01*
X351287Y259317D01*
X351275Y259389D01*
X351264Y259422D01*
X351248Y259450D01*
D02*
G37*
G36*
X349000Y266604D02*
Y265954D01*
X350082Y265077D01*
Y265072D01*
X349000D01*
Y264556D01*
X352336D01*
Y265072D01*
X350221D01*
Y265077D01*
X351253Y265904D01*
Y266520D01*
X350166Y265588D01*
X349000Y266604D01*
D02*
G37*
G36*
X350465Y263934D02*
X349000D01*
Y263440D01*
X349350D01*
Y263429D01*
X349344D01*
X349333Y263418D01*
X349311Y263407D01*
X349289Y263385D01*
X349222Y263329D01*
X349150Y263257D01*
X349078Y263163D01*
X349011Y263041D01*
X348989Y262974D01*
X348967Y262907D01*
X348956Y262830D01*
X348950Y262747D01*
Y262741D01*
Y262730D01*
Y262713D01*
X348956Y262691D01*
X348961Y262630D01*
X348972Y262558D01*
X348994Y262474D01*
X349028Y262386D01*
X349067Y262302D01*
X349128Y262225D01*
X349139Y262219D01*
X349161Y262197D01*
X349200Y262164D01*
X349255Y262130D01*
X349322Y262097D01*
X349405Y262064D01*
X349500Y262042D01*
X349605Y262036D01*
X349633D01*
X349666Y262042D01*
X349705Y262047D01*
X349755Y262058D01*
X349810Y262075D01*
X349871Y262097D01*
X349938Y262130D01*
X350005Y262169D01*
X350066Y262219D01*
X350132Y262275D01*
X350188Y262347D01*
X350243Y262430D01*
X350288Y262530D01*
X350321Y262647D01*
X350349Y262774D01*
X350443Y263440D01*
X350465D01*
X350487Y263435D01*
X350515D01*
X350554Y263429D01*
X350593Y263418D01*
X350682Y263385D01*
X350726Y263357D01*
X350770Y263329D01*
X350809Y263290D01*
X350848Y263246D01*
X350876Y263196D01*
X350898Y263135D01*
X350915Y263063D01*
X350920Y262985D01*
Y262980D01*
Y262968D01*
Y262946D01*
X350915Y262918D01*
Y262880D01*
X350904Y262841D01*
X350887Y262741D01*
X350854Y262630D01*
X350804Y262508D01*
X350770Y262447D01*
X350737Y262380D01*
X350693Y262319D01*
X350643Y262258D01*
X351092D01*
Y262264D01*
X351103Y262275D01*
X351115Y262291D01*
X351126Y262319D01*
X351142Y262352D01*
X351159Y262397D01*
X351176Y262441D01*
X351198Y262497D01*
X351237Y262613D01*
X351270Y262752D01*
X351292Y262913D01*
X351303Y263079D01*
Y263090D01*
Y263118D01*
X351298Y263157D01*
X351292Y263213D01*
X351275Y263279D01*
X351259Y263351D01*
X351231Y263429D01*
X351198Y263507D01*
X351153Y263584D01*
X351098Y263662D01*
X351031Y263734D01*
X350948Y263801D01*
X350854Y263856D01*
X350743Y263895D01*
X350615Y263923D01*
X350465Y263934D01*
D02*
G37*
G36*
X350132Y269096D02*
X350082D01*
X350043Y269090D01*
X349999Y269085D01*
X349943Y269079D01*
X349888Y269068D01*
X349821Y269057D01*
X349688Y269018D01*
X349616Y268990D01*
X349544Y268962D01*
X349472Y268924D01*
X349400Y268879D01*
X349333Y268829D01*
X349272Y268774D01*
X349266Y268768D01*
X349261Y268757D01*
X349244Y268741D01*
X349222Y268718D01*
X349200Y268685D01*
X349172Y268646D01*
X349139Y268602D01*
X349111Y268546D01*
X349083Y268491D01*
X349050Y268424D01*
X349022Y268357D01*
X349000Y268280D01*
X348978Y268197D01*
X348967Y268108D01*
X348956Y268019D01*
X348950Y267919D01*
Y267914D01*
Y267897D01*
Y267869D01*
X348956Y267830D01*
X348961Y267791D01*
X348967Y267736D01*
X348978Y267680D01*
X348989Y267619D01*
X349028Y267486D01*
X349083Y267347D01*
X349117Y267281D01*
X349161Y267214D01*
X349205Y267148D01*
X349261Y267087D01*
X349266Y267081D01*
X349277Y267075D01*
X349294Y267059D01*
X349316Y267037D01*
X349350Y267014D01*
X349389Y266987D01*
X349433Y266959D01*
X349483Y266931D01*
X349544Y266903D01*
X349605Y266876D01*
X349672Y266848D01*
X349749Y266826D01*
X349916Y266787D01*
X350005Y266781D01*
X350099Y266776D01*
X350154D01*
X350193Y266781D01*
X350238Y266787D01*
X350293Y266792D01*
X350354Y266804D01*
X350421Y266815D01*
X350565Y266853D01*
X350637Y266881D01*
X350709Y266915D01*
X350782Y266948D01*
X350854Y266992D01*
X350920Y267042D01*
X350981Y267098D01*
X350987Y267103D01*
X350998Y267114D01*
X351009Y267131D01*
X351031Y267159D01*
X351054Y267192D01*
X351081Y267231D01*
X351115Y267275D01*
X351142Y267331D01*
X351170Y267392D01*
X351203Y267458D01*
X351231Y267530D01*
X351253Y267608D01*
X351275Y267691D01*
X351292Y267780D01*
X351298Y267875D01*
X351303Y267974D01*
Y267980D01*
Y267997D01*
Y268024D01*
X351298Y268063D01*
X351292Y268108D01*
X351287Y268158D01*
X351275Y268213D01*
X351264Y268274D01*
X351226Y268408D01*
X351170Y268546D01*
X351137Y268613D01*
X351098Y268674D01*
X351048Y268741D01*
X350992Y268796D01*
X350987Y268801D01*
X350976Y268807D01*
X350959Y268824D01*
X350937Y268840D01*
X350904Y268868D01*
X350865Y268890D01*
X350820Y268918D01*
X350770Y268946D01*
X350709Y268973D01*
X350648Y269001D01*
X350576Y269029D01*
X350499Y269051D01*
X350415Y269068D01*
X350326Y269085D01*
X350232Y269090D01*
X350132Y269096D01*
D02*
G37*
G36*
X351253Y273430D02*
X350848D01*
Y272892D01*
X349688D01*
X349655Y272897D01*
X349610Y272903D01*
X349516Y272925D01*
X349472Y272942D01*
X349433Y272964D01*
X349427Y272970D01*
X349422Y272981D01*
X349405Y272997D01*
X349394Y273025D01*
X349377Y273058D01*
X349361Y273103D01*
X349355Y273153D01*
X349350Y273208D01*
Y273214D01*
Y273230D01*
X349355Y273253D01*
X349361Y273286D01*
X349383Y273358D01*
X349400Y273391D01*
X349427Y273430D01*
X349022D01*
X349017Y273425D01*
X349011Y273402D01*
X349000Y273369D01*
X348989Y273330D01*
X348972Y273275D01*
X348961Y273208D01*
X348956Y273130D01*
X348950Y273042D01*
Y273036D01*
Y273014D01*
X348956Y272981D01*
X348961Y272936D01*
X348967Y272886D01*
X348983Y272831D01*
X349000Y272775D01*
X349028Y272714D01*
X349061Y272648D01*
X349106Y272592D01*
X349155Y272537D01*
X349216Y272487D01*
X349289Y272442D01*
X349372Y272409D01*
X349466Y272387D01*
X349577Y272381D01*
X350848D01*
Y272009D01*
X351253D01*
Y272381D01*
X351769D01*
X351919Y272892D01*
X351253D01*
Y273430D01*
D02*
G37*
G36*
X350276Y261720D02*
X349988D01*
Y260182D01*
X349960D01*
X349938Y260188D01*
X349877Y260193D01*
X349810Y260210D01*
X349727Y260232D01*
X349649Y260271D01*
X349572Y260315D01*
X349500Y260377D01*
X349494Y260388D01*
X349472Y260410D01*
X349449Y260454D01*
X349416Y260510D01*
X349389Y260582D01*
X349361Y260665D01*
X349339Y260765D01*
X349333Y260882D01*
Y260887D01*
Y260898D01*
Y260915D01*
X349339Y260943D01*
Y260976D01*
X349344Y261009D01*
X349361Y261098D01*
X349389Y261204D01*
X349422Y261315D01*
X349477Y261426D01*
X349549Y261542D01*
X349139D01*
Y261537D01*
X349133Y261526D01*
X349122Y261509D01*
X349111Y261487D01*
X349094Y261453D01*
X349078Y261420D01*
X349061Y261376D01*
X349044Y261326D01*
X349028Y261270D01*
X349011Y261209D01*
X348994Y261142D01*
X348978Y261070D01*
X348956Y260909D01*
X348950Y260732D01*
Y260726D01*
Y260710D01*
Y260682D01*
X348956Y260648D01*
X348961Y260610D01*
X348967Y260560D01*
X348989Y260449D01*
X349022Y260321D01*
X349078Y260193D01*
X349117Y260127D01*
X349155Y260066D01*
X349200Y260005D01*
X349255Y259949D01*
X349261Y259944D01*
X349272Y259938D01*
X349289Y259922D01*
X349311Y259905D01*
X349344Y259883D01*
X349383Y259860D01*
X349427Y259833D01*
X349477Y259810D01*
X349533Y259783D01*
X349599Y259755D01*
X349672Y259733D01*
X349749Y259711D01*
X349833Y259694D01*
X349921Y259677D01*
X350016Y259672D01*
X350115Y259666D01*
X350166D01*
X350204Y259672D01*
X350249Y259677D01*
X350299Y259683D01*
X350360Y259694D01*
X350421Y259705D01*
X350554Y259744D01*
X350698Y259799D01*
X350770Y259833D01*
X350837Y259877D01*
X350909Y259922D01*
X350970Y259977D01*
X350976Y259982D01*
X350987Y259994D01*
X351004Y260010D01*
X351020Y260033D01*
X351048Y260066D01*
X351076Y260099D01*
X351103Y260143D01*
X351137Y260193D01*
X351198Y260304D01*
X351253Y260438D01*
X351270Y260510D01*
X351287Y260588D01*
X351298Y260671D01*
X351303Y260754D01*
Y260759D01*
Y260776D01*
Y260798D01*
X351298Y260832D01*
X351292Y260871D01*
X351287Y260915D01*
X351264Y261015D01*
X351231Y261131D01*
X351176Y261248D01*
X351142Y261309D01*
X351103Y261365D01*
X351059Y261414D01*
X351004Y261464D01*
X350998Y261470D01*
X350992Y261475D01*
X350976Y261487D01*
X350948Y261503D01*
X350920Y261526D01*
X350881Y261548D01*
X350843Y261570D01*
X350793Y261592D01*
X350737Y261614D01*
X350676Y261636D01*
X350604Y261659D01*
X350532Y261681D01*
X350454Y261698D01*
X350371Y261709D01*
X350276Y261720D01*
D02*
G37*
G36*
X351253Y271576D02*
X349000D01*
Y271066D01*
X349355D01*
Y271060D01*
X349350D01*
X349339Y271049D01*
X349316Y271038D01*
X349294Y271016D01*
X349228Y270966D01*
X349155Y270888D01*
X349117Y270844D01*
X349078Y270794D01*
X349044Y270739D01*
X349011Y270672D01*
X348989Y270605D01*
X348967Y270533D01*
X348956Y270450D01*
X348950Y270367D01*
Y270356D01*
Y270333D01*
X348956Y270294D01*
X348967Y270245D01*
X348978Y270183D01*
X349000Y270111D01*
X349028Y270039D01*
X349072Y269967D01*
X349122Y269895D01*
X349183Y269823D01*
X349261Y269751D01*
X349355Y269695D01*
X349461Y269640D01*
X349588Y269601D01*
X349738Y269579D01*
X349816Y269567D01*
X351253D01*
Y270078D01*
X349927D01*
X349899Y270084D01*
X349860D01*
X349816Y270095D01*
X349766Y270106D01*
X349655Y270139D01*
X349594Y270161D01*
X349544Y270195D01*
X349488Y270233D01*
X349444Y270278D01*
X349405Y270333D01*
X349377Y270394D01*
X349355Y270466D01*
X349350Y270550D01*
Y270561D01*
X349355Y270589D01*
X349361Y270627D01*
X349372Y270683D01*
X349389Y270739D01*
X349422Y270805D01*
X349461Y270866D01*
X349516Y270922D01*
X349522Y270927D01*
X349544Y270944D01*
X349583Y270966D01*
X349633Y270994D01*
X349699Y271022D01*
X349771Y271044D01*
X349860Y271060D01*
X349955Y271066D01*
X351253D01*
Y271576D01*
D02*
G37*
%LPD*%
G36*
X351425Y247661D02*
X351398Y247651D01*
X351370Y247634D01*
X351331Y247612D01*
X351287Y247584D01*
X351187Y247523D01*
X351070Y247451D01*
X350942Y247373D01*
X350815Y247290D01*
X350687Y247201D01*
X350682D01*
X350671Y247190D01*
X350654Y247179D01*
X350632Y247162D01*
X350571Y247118D01*
X350493Y247057D01*
X350404Y246990D01*
X350310Y246918D01*
X350210Y246840D01*
X350115Y246762D01*
Y247673D01*
X351436D01*
X351425Y247661D01*
D02*
G37*
G36*
X350304Y257091D02*
X350376Y257080D01*
X350460Y257058D01*
X350549Y257035D01*
X350632Y256997D01*
X350709Y256947D01*
X350715Y256941D01*
X350737Y256919D01*
X350770Y256886D01*
X350804Y256841D01*
X350837Y256780D01*
X350870Y256714D01*
X350892Y256630D01*
X350898Y256542D01*
Y256536D01*
Y256530D01*
X350892Y256497D01*
X350887Y256447D01*
X350876Y256381D01*
X350848Y256314D01*
X350815Y256236D01*
X350770Y256164D01*
X350704Y256098D01*
X350693Y256092D01*
X350671Y256075D01*
X350626Y256048D01*
X350571Y256020D01*
X350499Y255986D01*
X350421Y255964D01*
X350326Y255942D01*
X350221Y255937D01*
X349899D01*
X349849Y255948D01*
X349794Y255959D01*
X349727Y255976D01*
X349660Y256003D01*
X349588Y256042D01*
X349522Y256092D01*
X349516Y256098D01*
X349494Y256120D01*
X349466Y256153D01*
X349439Y256203D01*
X349405Y256259D01*
X349377Y256325D01*
X349355Y256403D01*
X349350Y256492D01*
Y256497D01*
Y256503D01*
X349355Y256536D01*
X349361Y256592D01*
X349377Y256653D01*
X349405Y256725D01*
X349444Y256797D01*
X349500Y256869D01*
X349572Y256936D01*
X349583Y256941D01*
X349610Y256963D01*
X349660Y256986D01*
X349733Y257019D01*
X349821Y257047D01*
X349927Y257074D01*
X350049Y257091D01*
X350188Y257097D01*
X350243D01*
X350304Y257091D01*
D02*
G37*
G36*
X350404Y253017D02*
X350460Y253001D01*
X350526Y252984D01*
X350593Y252956D01*
X350659Y252917D01*
X350726Y252862D01*
X350732Y252856D01*
X350754Y252834D01*
X350782Y252801D01*
X350815Y252756D01*
X350843Y252695D01*
X350870Y252629D01*
X350892Y252551D01*
X350898Y252468D01*
Y252462D01*
Y252457D01*
Y252440D01*
X350892Y252418D01*
X350887Y252368D01*
X350870Y252301D01*
X350848Y252229D01*
X350809Y252157D01*
X350754Y252079D01*
X350682Y252013D01*
X350671Y252007D01*
X350643Y251991D01*
X350593Y251963D01*
X350532Y251935D01*
X350443Y251902D01*
X350343Y251880D01*
X350226Y251857D01*
X350093Y251852D01*
X350038D01*
X349977Y251863D01*
X349899Y251874D01*
X349810Y251891D01*
X349722Y251918D01*
X349633Y251957D01*
X349549Y252007D01*
X349538Y252013D01*
X349516Y252035D01*
X349488Y252074D01*
X349449Y252124D01*
X349411Y252185D01*
X349383Y252257D01*
X349361Y252340D01*
X349350Y252434D01*
Y252440D01*
Y252446D01*
X349355Y252479D01*
X349361Y252523D01*
X349372Y252584D01*
X349394Y252651D01*
X349427Y252723D01*
X349477Y252790D01*
X349538Y252856D01*
X349549Y252862D01*
X349572Y252884D01*
X349616Y252912D01*
X349672Y252940D01*
X349744Y252973D01*
X349827Y252995D01*
X349921Y253017D01*
X350027Y253023D01*
X350360D01*
X350404Y253017D01*
D02*
G37*
G36*
X350038Y237927D02*
Y237916D01*
X350032Y237888D01*
X350027Y237849D01*
X350016Y237805D01*
X349982Y237694D01*
X349960Y237638D01*
X349932Y237594D01*
X349927Y237588D01*
X349916Y237577D01*
X349899Y237561D01*
X349871Y237538D01*
X349833Y237516D01*
X349782Y237499D01*
X349727Y237488D01*
X349655Y237483D01*
X349633D01*
X349605Y237488D01*
X349572Y237494D01*
X349538Y237505D01*
X349500Y237527D01*
X349461Y237549D01*
X349422Y237583D01*
X349416Y237588D01*
X349411Y237599D01*
X349394Y237627D01*
X349377Y237655D01*
X349361Y237699D01*
X349350Y237744D01*
X349339Y237799D01*
X349333Y237860D01*
Y237871D01*
Y237899D01*
X349344Y237944D01*
X349355Y237993D01*
X349372Y238054D01*
X349400Y238121D01*
X349439Y238182D01*
X349494Y238243D01*
X349500Y238249D01*
X349522Y238265D01*
X349561Y238293D01*
X349610Y238321D01*
X349672Y238349D01*
X349738Y238376D01*
X349821Y238393D01*
X349910Y238399D01*
X350104D01*
X350038Y237927D01*
D02*
G37*
G36*
X350671Y245436D02*
X350748D01*
X350843Y245425D01*
X350948Y245414D01*
X351059Y245397D01*
X351176Y245375D01*
X351292Y245347D01*
X351403Y245308D01*
X351509Y245264D01*
X351603Y245214D01*
X351681Y245147D01*
X351742Y245075D01*
X351764Y245036D01*
X351786Y244992D01*
X351792Y244948D01*
X351797Y244898D01*
Y244892D01*
Y244876D01*
X351792Y244842D01*
X351775Y244809D01*
X351758Y244764D01*
X351731Y244714D01*
X351692Y244665D01*
X351642Y244609D01*
X351570Y244553D01*
X351486Y244504D01*
X351386Y244454D01*
X351325Y244431D01*
X351264Y244409D01*
X351192Y244393D01*
X351120Y244376D01*
X351037Y244359D01*
X350948Y244348D01*
X350854Y244337D01*
X350754Y244326D01*
X350648Y244320D01*
X350482D01*
X350421Y244326D01*
X350349Y244332D01*
X350260Y244337D01*
X350160Y244348D01*
X350049Y244370D01*
X349943Y244393D01*
X349833Y244420D01*
X349722Y244459D01*
X349622Y244504D01*
X349533Y244559D01*
X349461Y244626D01*
X349400Y244698D01*
X349377Y244742D01*
X349361Y244787D01*
X349355Y244837D01*
X349350Y244886D01*
Y244892D01*
Y244909D01*
X349355Y244936D01*
X349366Y244975D01*
X349389Y245014D01*
X349411Y245064D01*
X349449Y245114D01*
X349500Y245164D01*
X349566Y245214D01*
X349644Y245264D01*
X349744Y245314D01*
X349860Y245353D01*
X349927Y245375D01*
X349993Y245392D01*
X350071Y245403D01*
X350154Y245419D01*
X350249Y245430D01*
X350343Y245436D01*
X350443Y245442D01*
X350609D01*
X350671Y245436D01*
D02*
G37*
G36*
X350038Y262968D02*
Y262957D01*
X350032Y262930D01*
X350027Y262891D01*
X350016Y262846D01*
X349982Y262735D01*
X349960Y262680D01*
X349932Y262635D01*
X349927Y262630D01*
X349916Y262619D01*
X349899Y262602D01*
X349871Y262580D01*
X349833Y262558D01*
X349782Y262541D01*
X349727Y262530D01*
X349655Y262524D01*
X349633D01*
X349605Y262530D01*
X349572Y262536D01*
X349538Y262547D01*
X349500Y262569D01*
X349461Y262591D01*
X349422Y262624D01*
X349416Y262630D01*
X349411Y262641D01*
X349394Y262669D01*
X349377Y262697D01*
X349361Y262741D01*
X349350Y262785D01*
X349339Y262841D01*
X349333Y262902D01*
Y262913D01*
Y262941D01*
X349344Y262985D01*
X349355Y263035D01*
X349372Y263096D01*
X349400Y263163D01*
X349439Y263224D01*
X349494Y263285D01*
X349500Y263290D01*
X349522Y263307D01*
X349561Y263335D01*
X349610Y263363D01*
X349672Y263390D01*
X349738Y263418D01*
X349821Y263435D01*
X349910Y263440D01*
X350104D01*
X350038Y262968D01*
D02*
G37*
G36*
X350249Y268563D02*
X350332Y268546D01*
X350426Y268530D01*
X350521Y268502D01*
X350609Y268463D01*
X350693Y268408D01*
X350704Y268402D01*
X350726Y268380D01*
X350759Y268341D01*
X350798Y268291D01*
X350832Y268224D01*
X350865Y268147D01*
X350887Y268052D01*
X350898Y267947D01*
Y267941D01*
Y267936D01*
Y267919D01*
X350892Y267897D01*
X350887Y267841D01*
X350870Y267775D01*
X350848Y267697D01*
X350809Y267619D01*
X350759Y267542D01*
X350687Y267470D01*
X350676Y267464D01*
X350648Y267442D01*
X350604Y267414D01*
X350537Y267386D01*
X350454Y267353D01*
X350354Y267325D01*
X350238Y267303D01*
X350110Y267297D01*
X350077D01*
X350049Y267303D01*
X349988Y267309D01*
X349905Y267320D01*
X349816Y267342D01*
X349722Y267375D01*
X349633Y267414D01*
X349549Y267475D01*
X349538Y267486D01*
X349516Y267508D01*
X349488Y267547D01*
X349449Y267603D01*
X349411Y267669D01*
X349383Y267747D01*
X349361Y267841D01*
X349350Y267947D01*
Y267952D01*
Y267958D01*
Y267974D01*
X349355Y267997D01*
X349361Y268052D01*
X349377Y268119D01*
X349400Y268191D01*
X349433Y268269D01*
X349483Y268341D01*
X349549Y268408D01*
X349561Y268413D01*
X349588Y268435D01*
X349633Y268457D01*
X349694Y268491D01*
X349777Y268518D01*
X349877Y268546D01*
X349988Y268563D01*
X350121Y268568D01*
X350182D01*
X350249Y268563D01*
D02*
G37*
G36*
X350443Y261220D02*
X350504Y261209D01*
X350571Y261192D01*
X350643Y261170D01*
X350709Y261142D01*
X350770Y261098D01*
X350776Y261092D01*
X350793Y261076D01*
X350820Y261048D01*
X350848Y261004D01*
X350876Y260954D01*
X350904Y260893D01*
X350920Y260826D01*
X350926Y260743D01*
Y260732D01*
Y260710D01*
X350920Y260665D01*
X350904Y260615D01*
X350887Y260560D01*
X350859Y260493D01*
X350820Y260432D01*
X350765Y260371D01*
X350759Y260366D01*
X350737Y260349D01*
X350698Y260321D01*
X350654Y260293D01*
X350593Y260260D01*
X350521Y260227D01*
X350437Y260205D01*
X350349Y260182D01*
Y261226D01*
X350393D01*
X350443Y261220D01*
D02*
G37*
D20*
X365272Y220350D02*
G03*
X405553Y243159I6978J34650D01*
G01*
X406056Y265853D02*
G03*
X364939Y289278I-33556J-11103D01*
G01*
X379500Y256500D02*
Y257500D01*
Y252500D02*
Y256500D01*
X373500Y253500D02*
Y257500D01*
Y252500D02*
Y253500D01*
X385819Y260906D02*
X388181D01*
X361803Y261622D02*
X362197D01*
X361803Y264378D02*
X362197D01*
X365272Y220350D02*
X365350D01*
D23*
X392622Y254803D02*
Y255197D01*
X395378Y254803D02*
Y255197D01*
X361803Y256378D02*
X362197D01*
X361803Y253622D02*
X362197D01*
X361803Y245622D02*
X362197D01*
X361803Y248378D02*
X362197D01*
D24*
X377283Y259000D02*
X377699Y259417D01*
Y260250D01*
X377283Y260666D01*
X376866D01*
X376450Y260250D01*
Y259833D01*
Y260250D01*
X376033Y260666D01*
X375617D01*
X375200Y260250D01*
Y259417D01*
X375617Y259000D01*
X377699Y261499D02*
X376033D01*
X375200Y262332D01*
X376033Y263165D01*
X377699D01*
X377283Y263998D02*
X377699Y264415D01*
Y265248D01*
X377283Y265665D01*
X376866D01*
X376450Y265248D01*
Y264831D01*
Y265248D01*
X376033Y265665D01*
X375617D01*
X375200Y265248D01*
Y264415D01*
X375617Y263998D01*
D34*
X332600Y215330D02*
X338899D01*
X332600Y294700D02*
X338999D01*
X338899Y212330D02*
Y215330D01*
X338999Y294700D02*
Y298200D01*
X309100Y212330D02*
X338899D01*
X309100D02*
Y298200D01*
X338999D01*
D35*
X369666Y254833D02*
X369999Y254500D01*
Y253833D01*
X369666Y253500D01*
X368333D01*
X368000Y253833D01*
Y254500D01*
X368333Y254833D01*
X369666Y255499D02*
X369999Y255833D01*
Y256499D01*
X369666Y256832D01*
X369333D01*
X369000Y256499D01*
Y256166D01*
Y256499D01*
X368666Y256832D01*
X368333D01*
X368000Y256499D01*
Y255833D01*
X368333Y255499D01*
X369666Y247333D02*
X369999Y247000D01*
Y246333D01*
X369666Y246000D01*
X368333D01*
X368000Y246333D01*
Y247000D01*
X368333Y247333D01*
X368000Y247999D02*
Y248666D01*
Y248333D01*
X369999D01*
X369666Y247999D01*
Y262833D02*
X369999Y262500D01*
Y261833D01*
X369666Y261500D01*
X368333D01*
X368000Y261833D01*
Y262500D01*
X368333Y262833D01*
X368000Y264832D02*
Y263499D01*
X369333Y264832D01*
X369666D01*
X369999Y264499D01*
Y263833D01*
X369666Y263499D01*
X314452Y221877D02*
X315119D01*
X314785D01*
Y220211D01*
X315119Y219878D01*
X315452D01*
X315785Y220211D01*
X313786Y219878D02*
Y221877D01*
X312786D01*
X312453Y221544D01*
Y220878D01*
X312786Y220544D01*
X313786D01*
X311786Y219878D02*
X311120D01*
X311453D01*
Y221877D01*
X311786Y221544D01*
X387999Y262500D02*
X386000D01*
Y263500D01*
X386333Y263833D01*
X387666D01*
X387999Y263500D01*
Y262500D01*
X386000Y264499D02*
Y265166D01*
Y264833D01*
X387999D01*
X387666Y264499D01*
X393000Y260500D02*
X394999D01*
Y261500D01*
X394666Y261833D01*
X394000D01*
X393666Y261500D01*
Y260500D01*
Y261166D02*
X393000Y261833D01*
Y262499D02*
Y263166D01*
Y262833D01*
X394999D01*
X394666Y262499D01*
D36*
X340834Y283583D02*
X341250Y283999D01*
X342084D01*
X342500Y283583D01*
Y281916D01*
X342084Y281500D01*
X341250D01*
X340834Y281916D01*
Y282750D01*
X341667D01*
X340001Y281500D02*
Y283999D01*
X338335Y281500D01*
Y283999D01*
X337502D02*
Y281500D01*
X336252D01*
X335836Y281916D01*
Y283583D01*
X336252Y283999D01*
X337502D01*
X342500Y276499D02*
Y274833D01*
X341667Y274000D01*
X340834Y274833D01*
Y276499D01*
X338335Y276083D02*
X338751Y276499D01*
X339584D01*
X340001Y276083D01*
Y274416D01*
X339584Y274000D01*
X338751D01*
X338335Y274416D01*
X335836Y276083D02*
X336252Y276499D01*
X337085D01*
X337502Y276083D01*
Y274416D01*
X337085Y274000D01*
X336252D01*
X335836Y274416D01*
X342500Y266000D02*
Y268499D01*
X341667Y267666D01*
X340834Y268499D01*
Y266000D01*
X338751Y268499D02*
X339584D01*
X340001Y268083D01*
Y266417D01*
X339584Y266000D01*
X338751D01*
X338335Y266417D01*
Y268083D01*
X338751Y268499D01*
X335836Y268083D02*
X336252Y268499D01*
X337085D01*
X337502Y268083D01*
Y267666D01*
X337085Y267250D01*
X336252D01*
X335836Y266833D01*
Y266417D01*
X336252Y266000D01*
X337085D01*
X337502Y266417D01*
X335002Y268499D02*
X334169D01*
X334586D01*
Y266000D01*
X335002D01*
X334169D01*
X342500Y258000D02*
Y260499D01*
X341667Y259666D01*
X340834Y260499D01*
Y258000D01*
X340001Y260499D02*
X339168D01*
X339584D01*
Y258000D01*
X340001D01*
X339168D01*
X336252Y260083D02*
X336669Y260499D01*
X337502D01*
X337918Y260083D01*
Y259666D01*
X337502Y259250D01*
X336669D01*
X336252Y258833D01*
Y258417D01*
X336669Y258000D01*
X337502D01*
X337918Y258417D01*
X334169Y260499D02*
X335002D01*
X335419Y260083D01*
Y258417D01*
X335002Y258000D01*
X334169D01*
X333753Y258417D01*
Y260083D01*
X334169Y260499D01*
X340834Y252083D02*
X341250Y252499D01*
X342084D01*
X342500Y252083D01*
Y250416D01*
X342084Y250000D01*
X341250D01*
X340834Y250416D01*
X340001Y252499D02*
Y250000D01*
X338335D01*
X337502Y252499D02*
Y250000D01*
Y250833D01*
X335836Y252499D01*
X337085Y251250D01*
X335836Y250000D01*
X340834Y244583D02*
X341250Y244999D01*
X342084D01*
X342500Y244583D01*
Y242916D01*
X342084Y242500D01*
X341250D01*
X340834Y242916D01*
X338335Y244583D02*
X338751Y244999D01*
X339584D01*
X340001Y244583D01*
Y244166D01*
X339584Y243750D01*
X338751D01*
X338335Y243333D01*
Y242916D01*
X338751Y242500D01*
X339584D01*
X340001Y242916D01*
X342500Y236999D02*
Y234500D01*
X341667Y235333D01*
X340834Y234500D01*
Y236999D01*
X342500Y228999D02*
Y227333D01*
X341667Y226500D01*
X340834Y227333D01*
Y228999D01*
X342500Y220999D02*
Y218917D01*
X342084Y218500D01*
X341250D01*
X340834Y218917D01*
Y220999D01*
M02*
